<svg id="Capa_1" enable-background="new 0 0 512 512" height="512" viewBox="0 0 512 512" width="512" xmlns="http://www.w3.org/2000/svg"><g><g><path d="m256 453.169c-108.72 0-197.17-88.45-197.17-197.169s88.45-197.169 197.17-197.169 197.17 88.45 197.17 197.169-88.45 197.169-197.17 197.169zm0-368.583c-94.519 0-171.415 76.896-171.415 171.414s76.896 171.414 171.415 171.414 171.415-76.896 171.415-171.414-76.897-171.414-171.415-171.414z" fill="#1faaee"/></g><path d="m427.075 266.709c-2.306 37.215-16.533 71.254-38.902 98.325 8.736 3.369 18.121 5.419 27.918 5.924 21.368-29.673 34.694-65.496 36.78-104.249z" fill="#1891cd"/><path d="m59.129 266.709c2.086 38.752 15.413 74.576 36.78 104.249 9.797-.505 19.182-2.555 27.918-5.924-22.368-27.072-36.596-61.11-38.902-98.325z" fill="#1891cd"/><g><g><circle cx="256" cy="91.148" fill="#fcb44d" r="91.148"/><path d="m347.147 91.152c0 50.331-40.806 91.147-91.147 91.147-5.548 0-10.984-.5-16.257-1.448 42.58-7.669 74.88-44.916 74.88-89.698 0-44.793-32.3-82.029-74.88-89.699 5.273-.949 10.709-1.448 16.257-1.448 50.342-.001 91.147 40.804 91.147 91.146z" fill="#fb9927"/><g><g><g><g><path d="m305.718 132.543v35.005c-14.301 9.331-31.372 14.749-49.715 14.749-18.351 0-35.421-5.418-49.723-14.749v-35.005c0-19.071 15.462-34.533 34.533-34.533h30.379c19.065 0 34.526 15.462 34.526 34.533z" fill="#bcea73"/><g><g><path d="m270.278 144.339-11.874 10.439c-1.375 1.208-3.433 1.208-4.808 0l-11.874-10.439c-1.029-.905-1.463-2.311-1.123-3.638l10.937-42.688h8.928l10.937 42.688c.34 1.328-.094 2.734-1.123 3.638z" fill="#107295"/></g></g><path d="m305.718 132.543v35.005c-5.594 3.657-11.62 6.706-17.975 9.067v-44.072c0-19.063-15.462-34.533-34.525-34.533h17.975c19.064 0 34.525 15.47 34.525 34.533z" fill="#a3e440"/><g><g><path d="m256 101.059c-15.547 0-28.15-12.603-28.15-28.149v-10.162c0-15.547 12.603-28.149 28.15-28.149 15.547 0 28.15 12.603 28.15 28.149v10.162c0 15.546-12.603 28.149-28.15 28.149z" fill="#ffcec0"/><path d="m284.15 62.751v10.159c0 15.546-12.603 28.149-28.15 28.149-3.109 0-6.108-.506-8.909-1.44 11.179-3.734 19.233-14.28 19.233-26.709v-10.159c0-7.769-3.149-14.81-8.244-19.906-3.054-3.054-6.796-5.404-10.989-6.804 2.801-.934 5.799-1.44 8.909-1.44 7.769 0 14.811 3.149 19.906 8.244 5.095 5.096 8.244 12.137 8.244 19.906z" fill="#fdb0a0"/></g></g></g></g></g></g></g><g><circle cx="256" cy="420.85" fill="#68dbf9" r="91.148"/><path d="m347.147 420.853c0 50.331-40.805 91.147-91.147 91.147-5.548 0-10.984-.5-16.257-1.448 42.58-7.669 74.88-44.916 74.88-89.698 0-44.793-32.3-82.029-74.88-89.699 5.273-.949 10.709-1.448 16.257-1.448 50.342-.001 91.147 40.805 91.147 91.146z" fill="#21c1f8"/><g><g><g><g><path d="m305.718 462.244v35.005c-14.301 9.331-31.372 14.75-49.715 14.75-18.351 0-35.421-5.418-49.723-14.75v-35.005c0-19.071 15.462-34.533 34.533-34.533h30.379c19.065 0 34.526 15.462 34.526 34.533z" fill="#fcb44d"/><g><g><path d="m270.278 474.041-11.874 10.439c-1.375 1.208-3.433 1.208-4.808 0l-11.874-10.439c-1.029-.905-1.463-2.311-1.123-3.638l10.937-42.688h8.928l10.937 42.688c.34 1.327-.094 2.733-1.123 3.638z" fill="#68dbf9"/></g></g><path d="m305.718 462.244v35.005c-5.594 3.657-11.62 6.707-17.975 9.067v-44.072c0-19.063-15.462-34.533-34.525-34.533h17.975c19.064 0 34.525 15.47 34.525 34.533z" fill="#fb9927"/><g><g><path d="m256 430.761c-15.547 0-28.15-12.603-28.15-28.149v-10.162c0-15.547 12.603-28.149 28.15-28.149 15.547 0 28.15 12.603 28.15 28.149v10.162c0 15.546-12.603 28.149-28.15 28.149z" fill="#ffcec0"/><path d="m284.15 392.453v10.158c0 15.546-12.603 28.149-28.15 28.149-3.109 0-6.108-.506-8.909-1.44 11.179-3.734 19.233-14.28 19.233-26.709v-10.158c0-7.769-3.149-14.81-8.244-19.906-3.054-3.054-6.796-5.404-10.989-6.804 2.801-.934 5.799-1.44 8.909-1.44 7.769 0 14.811 3.149 19.906 8.244s8.244 12.136 8.244 19.906z" fill="#fdb0a0"/></g></g></g></g></g></g></g></g><g><g><circle cx="420.851" cy="255.999" fill="#27d1b3" r="91.148"/><path d="m511.999 256.003c0 50.331-40.806 91.147-91.147 91.147-5.548 0-10.984-.5-16.257-1.448 42.58-7.669 74.88-44.915 74.88-89.698 0-44.793-32.3-82.029-74.88-89.699 5.273-.949 10.709-1.448 16.257-1.448 50.341-.001 91.147 40.804 91.147 91.146z" fill="#20b69f"/><g><g><g><g><path d="m470.57 297.394v35.005c-14.301 9.331-31.372 14.75-49.715 14.75-18.351 0-35.421-5.418-49.723-14.75v-35.005c0-19.071 15.462-34.533 34.533-34.533h30.379c19.064 0 34.526 15.461 34.526 34.533z" fill="#fb4a59"/><g><g><path d="m435.129 309.19-11.874 10.439c-1.375 1.208-3.433 1.208-4.808 0l-11.874-10.439c-1.029-.905-1.463-2.311-1.123-3.638l10.937-42.688h8.928l10.937 42.688c.341 1.327-.093 2.733-1.123 3.638z" fill="#f8f3f1"/></g></g><path d="m470.57 297.394v35.005c-5.594 3.657-11.62 6.707-17.975 9.067v-44.072c0-19.063-15.462-34.533-34.525-34.533h17.975c19.063 0 34.525 15.469 34.525 34.533z" fill="#f82f40"/><g><g><path d="m420.851 265.91c-15.547 0-28.15-12.603-28.15-28.149v-10.162c0-15.547 12.603-28.149 28.15-28.149 15.547 0 28.15 12.603 28.15 28.149v10.162c0 15.546-12.603 28.149-28.15 28.149z" fill="#ffcec0"/><path d="m449.002 227.602v10.158c0 15.546-12.603 28.149-28.15 28.149-3.109 0-6.108-.506-8.908-1.44 11.179-3.734 19.233-14.28 19.233-26.709v-10.158c0-7.769-3.149-14.81-8.244-19.906-3.054-3.054-6.796-5.404-10.989-6.804 2.801-.934 5.799-1.44 8.909-1.44 7.769 0 14.811 3.149 19.906 8.244 5.094 5.095 8.243 12.137 8.243 19.906z" fill="#fdb0a0"/></g></g></g></g></g></g></g><g><circle cx="91.149" cy="255.999" fill="#1682ad" r="91.148"/><path d="m182.296 256.003c0 50.331-40.806 91.147-91.147 91.147-5.548 0-10.984-.5-16.257-1.448 42.58-7.669 74.88-44.916 74.88-89.698 0-44.793-32.3-82.029-74.88-89.699 5.273-.949 10.709-1.448 16.257-1.448 50.341-.001 91.147 40.804 91.147 91.146z" fill="#107295"/><g><g><g><g><path d="m140.867 297.394v35.005c-14.301 9.331-31.372 14.75-49.715 14.75-18.351 0-35.421-5.418-49.723-14.75v-35.005c0-19.071 15.462-34.533 34.533-34.533h30.379c19.064 0 34.526 15.461 34.526 34.533z" fill="#f8f3f1"/><g><g><path d="m105.427 309.19-11.874 10.439c-1.375 1.208-3.433 1.208-4.808 0l-11.875-10.439c-1.029-.905-1.463-2.311-1.123-3.638l10.937-42.688h8.928l10.937 42.688c.341 1.327-.093 2.733-1.122 3.638z" fill="#fb4a59"/></g></g><path d="m140.867 297.394v35.005c-5.594 3.657-11.62 6.707-17.975 9.067v-44.072c0-19.063-15.462-34.533-34.525-34.533h17.975c19.063 0 34.525 15.469 34.525 34.533z" fill="#e5e1e5"/><g><g><path d="m91.149 265.91c-15.547 0-28.15-12.603-28.15-28.149v-10.162c0-15.547 12.603-28.149 28.15-28.149 15.547 0 28.15 12.603 28.15 28.149v10.162c-.001 15.546-12.604 28.149-28.15 28.149z" fill="#ffcec0"/><path d="m119.299 227.602v10.158c0 15.546-12.603 28.149-28.15 28.149-3.109 0-6.108-.506-8.908-1.44 11.179-3.734 19.233-14.28 19.233-26.709v-10.158c0-7.769-3.149-14.81-8.244-19.906-3.054-3.054-6.796-5.404-10.989-6.804 2.801-.934 5.799-1.44 8.908-1.44 7.769 0 14.811 3.149 19.906 8.244s8.244 12.137 8.244 19.906z" fill="#fdb0a0"/></g></g></g></g></g></g></g></g></g></svg>